<svg xmlns="http://www.w3.org/2000/svg" version="1.0" width="271" height="271" preserveAspectRatio="xMidYMid meet" style=""><rect id="backgroundrect" width="100%" height="100%" x="0" y="0" fill="none" stroke="none"/>
<metadata>
BetterJoy
</metadata>

<g class="currentLayer" style=""><title>Layer 1</title>
<path d="M117.84073166408038,0.5942638727917711 c-17.30000025779009,2.7000000402331352 -29.300000436604023,6.400000095367432 -43.50000064820051,13.500000201165676 c-20.300000302493572,10.100000150501728 -39.50000058859587,26.900000400841236 -51.80000077188015,45.40000067651272 c-6.500000096857548,9.700000144541264 -12.800000190734863,22.100000329315662 -14.200000211596489,27.700000412762165 l-0.7000000104308132,2.7000000402331352 l32.50000048428774,0 l32.40000048279762,0 l8.400000125169754,-8.300000123679638 c15.900000236928463,-15.800000235438347 32.40000048279762,-22.70000033825636 54.6000008136034,-22.70000033825636 c36.500000543892384,0 67.30000100284815,25.200000375509262 75.00000111758709,61.30000091344118 c2.3000000342726707,10.900000162422657 1.3000000193715096,27.900000415742397 -2.1000000312924385,38.20000056922436 c-6.900000102818012,20.500000305473804 -20.300000302493572,36.0000005364418 -39.20000058412552,45.40000067651272 c-7.700000114738941,3.8000000566244125 -18.0000002682209,7.1000001057982445 -22.300000332295895,7.1000001057982445 c-2.1000000312924385,0 -2.1000000312924385,0 -1.9000000283122063,29.700000442564487 l0.30000000447034836,29.800000444054604 l4.500000067055225,-0.30000000447034836 c11.800000175833702,-0.800000011920929 30.200000450015068,-6.000000089406967 43.50000064820051,-12.300000183284283 c39.60000059008598,-18.600000277161598 68.50000102072954,-56.800000846385956 76.00000113248825,-100.30000149458647 c1.9000000283122063,-11.300000168383121 1.9000000283122063,-32.40000048279762 0,-44.40000066161156 c-9.200000137090683,-56.50000084191561 -54.70000081509352,-102.10000152140856 -111.40000165998936,-111.60000166296959 c-8.700000129640102,-1.5000000223517418 -33.20000049471855,-2.0000000298023224 -40.100000597536564,-0.9000000134110453 z" id="svg_2" class="" fill="#004a7f" fill-opacity="1"/>
<path d="M148.84073212601638,84.21244684486535 c-10.200000151991844,2.9000000432133675 -34.00000050663948,9.700000144541264 -53.00000078976154,15.000000223517418 c-19.000000283122063,5.4000000804662704 -48.20000071823597,13.600000202655792 -65.00000096857548,18.400000274181366 l-30.500000454485416,8.700000129640102 l-0.30000000447034836,11.400000169873238 c-0.30000000447034836,11.200000166893005 1.1000000163912773,26.30000039190054 2.8000000417232513,28.90000043064356 c0.800000011920929,1.4000000208616257 0.6000000089406967,1.4000000208616257 92.50000137835741,-24.600000366568565 c59.80000089108944,-16.900000251829624 71.80000106990337,-20.300000302493572 72.20000107586384,-20.700000308454037 c0.5000000074505809,-0.4000000059604648 0.6000000089406967,-41.600000619888306 0.10000000149011612,-42.00000062584877 c-0.10000000149011612,-0.20000000298023224 -8.600000128149986,2.0000000298023224 -18.80000028014183,4.90000007301569 z" id="svg_3" class="selected" fill-opacity="1" fill="#7f0000"/>
<path d="M77.040731056113,169.8942663955584 c-35.90000053495169,10.30000015348196 -65.60000097751617,19.000000283122063 -66.00000098347664,19.400000289082527 c-1.700000025331974,1.8000000268220901 17.600000262260437,33.80000050365925 21.300000317394733,35.200000524520874 c1.1000000163912773,0.5000000074505808 58.50000087171793,-15.500000230967999 106.80000159144402,-29.700000442564487 l6.70000009983778,-2.0000000298023224 l0,-20.90000031143427 c0,-19.400000289082527 -0.10000000149011612,-21.000000312924385 -1.700000025331974,-20.90000031143427 c-1.0000000149011612,0 -31.20000046491623,8.50000012665987 -67.10000099986792,18.900000281631947 z" id="svg_4" class="" fill-opacity="1" fill="#007f0e"/>
<path d="M87.64073121406531,236.29426738499546 c-17.50000026077032,5.000000074505806 -31.800000473856926,9.400000140070915 -31.800000473856926,9.700000144541264 c0,1.1000000163912773 10.400000154972076,7.600000113248825 18.900000281631947,11.900000177323818 c13.100000195205212,6.600000098347664 34.900000520050526,13.000000193715096 44.10000065714121,13.000000193715096 l3.0000000447034836,0 l0,-22.000000327825546 c0,-17.00000025331974 -0.30000000447034836,-22.000000327825546 -1.2000000178813934,-21.90000032633543 c-0.7000000104308132,0.10000000149011612 -15.600000232458115,4.200000062584877 -33.00000049173832,9.300000138580799 z" id="svg_5" class="" fill-opacity="1" fill="#ff6a00"/>
</g></svg>