<?xml version="1.0" encoding="utf-8"?>
<!-- Generator: Adobe Illustrator 22.0.0, SVG Export Plug-In . SVG Version: 6.00 Build 0)  -->
<svg version="1.1" id="Слой_1" xmlns="http://www.w3.org/2000/svg" xmlns:xlink="http://www.w3.org/1999/xlink" x="0px" y="0px"
	 viewBox="0 0 1030 1030" style="enable-background:new 0 0 1030 1030;" xml:space="preserve">
<style type="text/css">
	.st0{fill-rule:evenodd;clip-rule:evenodd;fill:#FF6A00;}
	.st1{fill-rule:evenodd;clip-rule:evenodd;fill:#008000;}
	.st2{fill-rule:evenodd;clip-rule:evenodd;fill:#950000;}
	.st3{fill-rule:evenodd;clip-rule:evenodd;fill:#004982;}
</style>
<path class="st0" d="M459.3,860v167l-18.1-1.4c-83.8-11.6-161.3-45-226.8-94.1L459.3,860z"/>
<path class="st1" d="M554,570.7v160L126,854.5C91.4,814.1,63,768.2,42,718.6L554,570.7z"/>
<path class="st2" d="M637.4,298v158.1L15.1,631.9C7.2,596.2,3,559.5,3,521.5c0-15.3,0.7-30.1,2-45L637.4,298z"/>
<path class="st3" d="M516.1,3C798.4,3,1027,231.2,1027,513.1c0,267.6-206.8,487.4-469.5,508.3V804.9
	C701,784.9,811.3,662,811.3,513.1c0-162.8-132.2-295-295.2-295c-97,0-183.2,46.8-237,119.2H36.4C108.3,142.1,295.9,3,516.1,3z"/>
</svg>
